<svg xmlns="http://www.w3.org/2000/svg" width="24" height="24" fill="none" viewBox="0 0 24 24"><path stroke="currentColor" stroke-linecap="round" stroke-linejoin="round" stroke-width="1.5" vector-effect="non-scaling-stroke" d="M17.638 11.58l3.06 3.67a.806.806 0 01.167.693l-1.248 5.616a.807.807 0 01-1.293.456l-2.973-2.246M6.362 11.58l-3.06 3.67a.807.807 0 00-.167.693l1.248 5.616a.808.808 0 001.293.456l2.973-2.246"></path><path stroke="currentColor" stroke-linecap="round" stroke-linejoin="round" stroke-width="1.5" d="M8.65 19.77c-5.785-9.761.914-16.1 2.854-17.6a.808.808 0 01.992 0c1.94 1.5 8.639 7.838 2.855 17.6H8.649zM13.615 23h-3.23" vector-effect="non-scaling-stroke"></path><path fill="currentColor" d="M12 11.693a1.211 1.211 0 100-2.423 1.211 1.211 0 000 2.423z" vector-effect="non-scaling-stroke"></path></svg>